<?xml version="1.0" encoding="UTF-8" standalone="no"?>
<!-- Created with Inkscape (http://www.inkscape.org/) -->
<svg
   xmlns:dc="http://purl.org/dc/elements/1.1/"
   xmlns:cc="http://web.resource.org/cc/"
   xmlns:rdf="http://www.w3.org/1999/02/22-rdf-syntax-ns#"
   xmlns:svg="http://www.w3.org/2000/svg"
   xmlns="http://www.w3.org/2000/svg"
   xmlns:sodipodi="http://sodipodi.sourceforge.net/DTD/sodipodi-0.dtd"
   xmlns:inkscape="http://www.inkscape.org/namespaces/inkscape"
   id="svg2"
   sodipodi:version="0.32"
   inkscape:version="0.45.1"
   width="100"
   height="75"
   version="1.0"
   sodipodi:docbase="C:\Documents and Settings\Administrator\Desktop\Parentesi"
   sodipodi:docname="ParentesiUncinate.svg"
   inkscape:output_extension="org.inkscape.output.svg.inkscape">
  <metadata
     id="metadata7">
    <rdf:RDF>
      <cc:Work
         rdf:about="">
        <dc:format>image/svg+xml</dc:format>
        <dc:type
           rdf:resource="http://purl.org/dc/dcmitype/StillImage" />
      </cc:Work>
    </rdf:RDF>
  </metadata>
  <defs
     id="defs5" />
  <sodipodi:namedview
     inkscape:window-height="719"
     inkscape:window-width="1024"
     inkscape:pageshadow="2"
     inkscape:pageopacity="0.0"
     guidetolerance="10.0"
     gridtolerance="10.0"
     objecttolerance="10.0"
     borderopacity="1.0"
     bordercolor="#666666"
     pagecolor="#ffffff"
     id="base"
     inkscape:zoom="5.04"
     inkscape:cx="57.395833"
     inkscape:cy="37.5"
     inkscape:window-x="-4"
     inkscape:window-y="-4"
     inkscape:current-layer="svg2" />
  <path
     style="font-size:100px;font-style:normal;font-weight:normal;fill:#000000;fill-opacity:1;stroke:none;stroke-width:1px;stroke-linecap:butt;stroke-linejoin:miter;stroke-opacity:1;font-family:Calibri"
     d="M 45.043945,57.788086 C 45.0439,58.601895 45.011348,59.261074 44.946289,59.765625 C 44.88114,60.270188 44.767208,60.62826 44.604492,60.839844 C 44.441688,61.051437 44.238237,61.140955 43.994141,61.108398 C 43.749956,61.075851 43.44885,60.961919 43.09082,60.766602 L 4.6142578,41.333008 C 4.2887329,41.170272 4.0283165,40.779647 3.8330078,40.161133 C 3.6376918,39.542669 3.5400357,38.647488 3.5400391,37.475586 C 3.5400357,36.954781 3.5644497,36.466501 3.6132813,36.010742 C 3.6621059,35.555043 3.743486,35.180695 3.8574219,34.887695 C 3.9713504,34.594758 4.1015586,34.342479 4.2480469,34.130859 C 4.394527,33.919303 4.5654253,33.780956 4.7607422,33.71582 L 43.09082,14.379883 C 43.839475,14.021862 44.352169,14.038138 44.628906,14.428711 C 44.905554,14.819387 45.0439,15.779672 45.043945,17.30957 C 45.0439,18.253628 45.019486,19.002325 44.970703,19.555664 C 44.92183,20.109095 44.84045,20.556686 44.726563,20.898438 C 44.612586,21.240279 44.449826,21.500695 44.238281,21.679688 C 44.026649,21.858768 43.725542,22.045942 43.334961,22.241211 L 11.889648,37.62207 L 43.139648,52.758789 C 43.562782,52.986666 43.896441,53.190117 44.140625,53.369141 C 44.384721,53.548189 44.571896,53.808606 44.702148,54.150391 C 44.832312,54.492199 44.92183,54.947927 44.970703,55.517578 C 45.019486,56.087249 45.0439,56.844084 45.043945,57.788086 L 45.043945,57.788086 z M 96.459961,37.670898 C 96.459914,38.224311 96.427362,38.72073 96.362305,39.160156 C 96.297154,39.599635 96.215774,39.982122 96.118164,40.307617 C 96.020462,40.633163 95.890254,40.885441 95.727539,41.064453 C 95.564733,41.243514 95.385697,41.38186 95.19043,41.479492 L 56.860352,60.81543 C 56.502272,60.978195 56.193028,61.067713 55.932617,61.083984 C 55.672195,61.100265 55.468745,60.994471 55.322266,60.766602 C 55.175776,60.538742 55.069982,60.188808 55.004883,59.716797 C 54.939774,59.244798 54.907222,58.634447 54.907227,57.885742 C 54.907222,56.974293 54.923498,56.241871 54.956055,55.688477 C 54.988602,55.135102 55.061844,54.687511 55.175781,54.345703 C 55.289708,54.003918 55.460606,53.735364 55.688477,53.540039 C 55.916335,53.344739 56.209304,53.165703 56.567383,53.00293 L 88.061523,37.524414 L 56.762695,22.436523 C 56.339512,22.241254 56.005853,22.05408 55.761719,21.875 C 55.517573,21.696008 55.330398,21.427453 55.200195,21.069336 C 55.069982,20.711308 54.988602,20.247441 54.956055,19.677734 C 54.923498,19.10812 54.907222,18.351284 54.907227,17.407227 C 54.907222,16.560922 54.939774,15.901743 55.004883,15.429688 C 55.069982,14.957733 55.175776,14.615936 55.322266,14.404297 C 55.468745,14.19276 55.672195,14.103242 55.932617,14.135742 C 56.193028,14.168346 56.502272,14.282278 56.860352,14.477539 L 95.336914,33.862305 C 95.662389,34.025097 95.930944,34.423859 96.142578,35.058594 C 96.35412,35.693389 96.459914,36.564157 96.459961,37.670898 L 96.459961,37.670898 z "
     id="text2161" />
</svg>
